PathFileType	4	(X/Y/Z)	C:\Users\dbl\Desktop\20210112\20210112\bx_n_5_901.trc
DataRate	CameraRate	NumFrames	NumMarkers	Units	OrigDataRate	OrigDataStartFrame	OrigNumFrames
50.00	50.00	       8	43	mm	50.00	118	       470
Frame#	Time	Top.Head			R.Acromium			L.Acromium			Sternum			R.ASIS			L.ASIS			V.Sacral			R.Thigh.Upper			R.Thigh.Front			R.Thigh.Rear			R.Knee.Lat			R.Knee.Med			R.Shank.Upper			R.Shank.Front			R.Shank.Rear			R.Ankle.Lat			R.Midfoot.Lat			R.Toe.Lat			R.Toe.Tip			R.Toe.Med			R.Ankle.Med			R.Midfoot.Sup			R.Heel			L.Thigh.Upper			L.Thigh.Front			L.Thigh.Rear			L.Knee.Lat			L.Knee.Med			L.Shank.Upper			L.Shank.Front			L.Shank.Rear			L.Ankle.Lat			L.Midfoot.Lat			L.Toe.Lat			L.Toe.Tip			L.Toe.Med			L.Ankle.Med			L.Midfoot.Sup			L.Heel			origin1 front left			origin2 front right			origin 3 back right			origin 4 back leftt			
		X1	Y1	Z1	X2	Y2	Z2	X3	Y3	Z3	X4	Y4	Z4	X5	Y5	Z5	X6	Y6	Z6	X7	Y7	Z7	X8	Y8	Z8	X9	Y9	Z9	X10	Y10	Z10	X11	Y11	Z11	X12	Y12	Z12	X13	Y13	Z13	X14	Y14	Z14	X15	Y15	Z15	X16	Y16	Z16	X17	Y17	Z17	X18	Y18	Z18	X19	Y19	Z19	X20	Y20	Z20	X21	Y21	Z21	X22	Y22	Z22	X23	Y23	Z23	X24	Y24	Z24	X25	Y25	Z25	X26	Y26	Z26	X27	Y27	Z27	X28	Y28	Z28	X29	Y29	Z29	X30	Y30	Z30	X31	Y31	Z31	X32	Y32	Z32	X33	Y33	Z33	X34	Y34	Z34	X35	Y35	Z35	X36	Y36	Z36	X37	Y37	Z37	X38	Y38	Z38	X39	Y39	Z39	X40	Y40	Z40	X41	Y41	Z41	X42	Y42	Z42	X43	Y43	Z43	

118	2.340	-98.08667	110.02237	1047.63867	-382.01941	1622.08667	942.17474	-333.86227	252.34875	936.19928	-484.68201	63.37147	827.41870	-799.99976	-19.77013	947.65350	-776.76898	228.33850	971.07941	-918.92578	87.82495	1102.81909	-862.29553	-78.48476	857.00781	-771.57764	-9.12297	800.26953	-852.56732	-71.18468	741.50946	-829.21680	-38.07869	605.32867	-808.95184	71.65599	563.37524	-824.99835	-35.92247	558.04956	-764.86169	15.13708	524.06805	-843.33173	-50.37665	470.80719	-763.23529	-24.44153	202.90984	-646.99316	-66.52148	162.10556	-605.03955	-72.24112	156.67410	-548.92871	-20.52086	162.88206	-600.97882	30.58270	165.85677	-729.83905	65.07923	219.65027	-675.75745	51.80674	161.83669	-795.47168	33.73421	172.81715	-883.45215	288.21780	862.25299	-771.93829	216.28990	786.84644	-855.37854	281.36804	726.96881	-856.51660	254.68658	623.31702	-808.90564	144.06946	567.41919	-839.75409	249.72147	560.94287	-778.12781	205.32256	535.66638	-857.74335	262.98230	481.65988	-773.10095	231.71243	201.55432	-658.79871	296.52869	158.51735	-622.54755	304.31525	158.68994	-557.58185	251.61301	163.76331	-594.26898	215.94434	173.15091	-723.37732	157.68057	222.68266	-677.44116	174.57748	162.69447	-799.43219	184.27371	180.18361	-528.16180	304.03122	146.46278	-518.02319	-72.69463	143.17984	-875.84668	-78.60426	141.10303	-882.82788	296.01999	144.74519	
119	2.360	-99.44214	110.39126	1051.17334	-379.73257	1559.20007	943.01147	-334.60657	252.36432	937.11194	-484.92209	64.04877	829.57416	-799.93713	-20.17864	948.01678	-778.08075	228.07390	970.74414	-920.11591	87.40049	1102.56274	-863.47522	-79.10160	856.78986	-772.56348	-10.16535	799.99487	-853.84766	-71.71455	741.16608	-830.33386	-38.40574	605.11768	-809.67572	71.26932	563.44220	-826.03760	-36.18903	557.78473	-765.69226	14.72686	524.01440	-844.18225	-50.48903	470.57291	-763.30542	-24.46006	202.89099	-647.00635	-66.53223	162.07935	-605.08374	-72.20444	156.65947	-548.94257	-20.52277	162.87053	-600.94482	30.53842	165.86946	-729.94446	64.97547	219.64580	-675.81427	51.81776	161.86176	-795.48590	33.74851	172.73958	-884.65601	287.86880	862.05298	-773.08936	215.88318	786.63910	-856.46649	281.10431	726.74005	-857.45532	254.45044	623.13641	-809.59302	143.67252	567.36523	-840.53308	249.43300	560.74506	-778.84357	205.04419	535.56403	-858.32935	262.71332	481.49149	-773.15155	231.60841	201.52405	-658.77368	296.51868	158.54364	-622.59894	304.24149	158.71451	-557.64276	251.59808	163.76614	-594.35858	215.89520	173.06018	-723.49225	157.57344	222.66214	-677.45068	174.56358	162.69342	-799.44312	184.18340	180.12418	-528.16498	304.03439	146.44861	-518.01758	-72.67435	143.17575	-875.86029	-78.59077	141.08783	-882.86096	296.01617	144.74876	
120	2.380	-100.81433	110.82507	1054.69629	-377.40027	1493.85840	944.09692	-335.39212	252.38510	938.24945	-485.18463	64.75061	831.95966	-799.83734	-20.57018	948.42218	-779.31262	227.87508	970.49878	-921.27692	87.00108	1102.32410	-864.46826	-79.64025	856.57501	-773.45685	-11.10671	799.76941	-854.95654	-72.23492	740.85846	-831.29706	-38.73006	604.94482	-810.34045	70.93926	563.49005	-826.93176	-36.44168	557.53082	-766.40967	14.35399	524.00983	-844.91980	-50.60516	470.37811	-763.35358	-24.47900	202.87827	-646.99976	-66.51604	162.06084	-605.12817	-72.15549	156.65518	-548.95752	-20.52093	162.85544	-600.90094	30.51899	165.87306	-730.04211	64.88163	219.63242	-675.86359	51.84138	161.92848	-795.50916	33.75877	172.67264	-885.77393	287.49655	861.88251	-774.20038	215.52557	786.40808	-857.51239	280.87903	726.52063	-858.36267	254.23656	622.95056	-810.25635	143.31050	567.25629	-841.31140	249.22339	560.57166	-779.54205	204.81497	535.49695	-858.91284	262.49765	481.31082	-773.21008	231.54408	201.51149	-658.75458	296.52609	158.54964	-622.64502	304.19382	158.72223	-557.68286	251.58519	163.77045	-594.45227	215.85437	172.97536	-723.60980	157.50960	222.65974	-677.47089	174.55331	162.68893	-799.46393	184.14127	180.08804	-528.16486	304.03281	146.43704	-518.01923	-72.65491	143.17889	-875.87817	-78.57334	141.06770	-882.89227	296.00824	144.74724	
121	2.400	-102.16425	111.32014	1058.10181	-375.03790	1426.37634	945.43591	-336.21716	252.41125	939.62360	-485.46979	65.47574	834.57172	-799.70129	-20.94357	948.86877	-780.43750	227.72917	970.36798	-922.39886	86.61388	1102.09595	-865.22900	-80.04065	856.34100	-774.25452	-11.85611	799.61560	-855.86346	-72.70718	740.60590	-832.08777	-39.05148	604.82202	-810.94373	70.67551	563.50812	-827.66711	-36.68364	557.30023	-767.01440	14.03449	524.05707	-845.52905	-50.72434	470.21335	-763.37732	-24.48790	202.87271	-646.97424	-66.46780	162.04729	-605.17175	-72.09886	156.65849	-548.97217	-20.51629	162.83934	-600.85779	30.52369	165.86644	-730.12085	64.80569	219.61351	-675.89813	51.88022	162.03947	-795.54260	33.76365	172.62999	-886.78552	287.05725	861.74622	-775.24030	215.20432	786.17303	-858.48328	280.66425	726.33197	-859.21136	254.02409	622.77173	-810.87891	143.00121	567.09662	-842.06036	249.06129	560.42725	-780.19568	204.62057	535.46893	-859.47742	262.32458	481.13364	-773.26379	231.50224	201.52051	-658.74390	296.54358	158.54065	-622.68134	304.17007	158.71684	-557.69464	251.57809	163.77995	-594.53400	215.82602	172.90785	-723.71045	157.47951	222.67122	-677.49628	174.54269	162.68236	-799.49084	184.13771	180.07851	-528.16064	304.02686	146.43164	-518.02698	-72.63856	143.18491	-875.90186	-78.55175	141.04640	-882.91956	295.99243	144.73933	
122	2.420	-103.44800	111.87006	1061.32446	-372.66083	1357.06970	947.03333	-337.07962	252.44319	941.24585	-485.77768	66.22293	837.40662	-799.52966	-21.29758	949.35559	-781.43860	227.60767	970.35852	-923.47644	86.22623	1101.87402	-865.75085	-80.27479	856.07733	-774.96039	-12.34554	799.54071	-856.55719	-73.09544	740.41931	-832.70795	-39.36685	604.75372	-811.49316	70.47441	563.49664	-828.24829	-36.91861	557.10303	-767.52380	13.78187	524.14459	-846.00421	-50.84536	470.06595	-763.37811	-24.48336	202.87492	-646.93414	-66.38802	162.03384	-605.21289	-72.03815	156.66634	-548.98450	-20.50920	162.82452	-600.82697	30.54743	165.85014	-730.17377	64.74876	219.59325	-675.91553	51.93373	162.18706	-795.58124	33.75953	172.61833	-887.67932	286.52383	861.64740	-776.18372	214.89745	785.95490	-859.35388	280.43396	726.19598	-859.98267	253.79788	622.61572	-811.45099	142.75047	566.90717	-842.75208	248.90793	560.31177	-780.78589	204.44133	535.47443	-860.00256	262.17676	480.97626	-773.30005	231.46097	201.55157	-658.74255	296.56015	158.52469	-622.70410	304.16281	158.70607	-557.67773	251.58075	163.79517	-594.59064	215.81093	172.86482	-723.77765	157.46916	222.68987	-677.51923	174.53108	162.67581	-799.51526	184.15540	180.09421	-528.15393	304.01825	146.43451	-518.03937	-72.62576	143.18938	-875.93024	-78.52703	141.02794	-882.94104	295.96759	144.72507	
123	2.440	-104.62451	112.47153	1064.34814	-370.28452	1286.25330	948.89423	-337.97772	252.48151	943.12762	-486.10843	66.99093	840.46082	-799.32336	-21.63102	949.88153	-782.31158	227.47600	970.46216	-924.51056	85.82829	1101.65881	-866.07190	-80.35973	855.79327	-775.58112	-12.55401	799.53723	-857.04474	-73.37617	740.29999	-833.17584	-39.66993	604.73376	-812.00195	70.31964	563.46381	-828.69257	-37.14990	556.94458	-767.96155	13.60168	524.25189	-846.34790	-50.97054	469.92569	-763.36066	-24.46945	202.88351	-646.88519	-66.28349	162.01637	-605.24915	-71.97604	156.67630	-548.99243	-20.49913	162.81221	-600.81659	30.58291	165.82631	-730.20087	64.70492	219.57632	-675.91797	51.99807	162.35533	-795.61542	33.74195	172.63622	-888.45294	285.89359	861.58466	-777.01807	214.57942	785.76776	-860.11279	280.17029	726.12811	-860.67004	253.55519	622.49884	-811.97247	142.55006	566.72028	-843.36755	248.73462	560.22449	-781.30701	204.25914	535.50409	-860.47314	262.03748	480.85089	-773.31171	231.40430	201.60162	-658.74908	296.56631	158.50964	-622.71136	304.16293	158.69754	-557.63947	251.59500	163.81247	-594.61609	215.80733	172.84738	-723.80231	157.46777	222.71062	-677.53247	174.52255	162.67197	-799.52771	184.17792	180.13026	-528.14832	304.00864	146.44604	-518.05481	-72.61507	143.18910	-875.95923	-78.50153	141.01498	-882.95453	295.93588	144.70602	
124	2.460	-105.66425	113.12849	1067.20850	-367.92441	1214.24280	951.02332	-338.90988	252.52637	945.27899	-486.46216	67.77849	843.73077	-799.08313	-21.94268	950.44568	-783.06360	227.30626	970.66241	-925.50800	85.41473	1101.45410	-866.26501	-80.35406	855.51636	-776.12390	-12.51750	799.58722	-857.34949	-73.54632	740.24005	-833.52008	-39.95316	604.74512	-812.48413	70.18738	563.41876	-829.02411	-37.37989	556.82532	-768.34802	13.48731	524.35553	-846.57233	-51.10840	469.78903	-763.33087	-24.45533	202.89497	-646.83228	-66.16631	161.99385	-605.27667	-71.91492	156.68683	-548.99518	-20.48541	162.80241	-600.82831	30.62290	165.79828	-730.20874	64.66446	219.56772	-675.91077	52.06687	162.52454	-795.63495	33.70817	172.67555	-889.11304	285.18738	861.55066	-777.74615	214.22682	785.61493	-860.76538	279.86624	726.13159	-861.27911	253.30482	622.43274	-812.45178	142.38107	566.57141	-843.90363	248.53391	560.16687	-781.76672	204.06381	535.54938	-860.88757	261.89645	480.76248	-773.30103	231.32944	201.66458	-658.75952	296.55927	158.50052	-622.70374	304.16315	158.69542	-557.59326	251.61893	163.82549	-594.61328	215.81264	172.85081	-723.78510	157.47226	222.73277	-677.53156	174.52448	162.67349	-799.52258	184.19620	180.17992	-528.14874	303.99854	146.46494	-518.07196	-72.60393	143.18176	-875.98352	-78.47830	141.00763	-882.95697	295.90320	144.68510	
125	2.480	-106.55652	113.85072	1069.98950	-365.59579	1141.35327	953.42572	-339.87503	252.57660	947.70825	-486.83899	68.58437	847.21289	-798.80963	-22.23137	951.04700	-783.71057	227.08649	970.94214	-926.48059	84.98500	1101.26526	-866.41400	-80.33815	855.28265	-776.59723	-12.31862	799.66663	-857.50903	-73.62685	740.22382	-833.77380	-40.21154	604.76324	-812.95081	70.05317	563.36505	-829.26935	-37.61053	556.74115	-768.69525	13.41927	524.43500	-846.69965	-51.27321	469.65967	-763.29456	-24.45180	202.90474	-646.77850	-66.05135	161.96872	-605.29065	-71.85736	156.69688	-548.99359	-20.46848	162.79463	-600.85620	30.66173	165.77007	-730.20813	64.61847	219.57225	-675.89960	52.13247	162.67627	-795.63373	33.65927	172.72511	-889.67401	284.44153	861.53516	-778.38379	213.82387	785.49048	-861.33282	279.52484	726.19574	-861.82556	253.06020	622.41846	-812.90173	142.22119	566.48962	-844.37494	248.31841	560.14154	-782.18250	203.85629	535.60516	-861.26050	261.75125	480.70865	-773.27832	231.24666	201.73270	-658.76874	296.54501	158.49808	-622.68488	304.15973	158.69933	-557.55371	251.64703	163.82819	-594.59229	215.82466	172.86653	-723.73651	157.48610	222.75980	-677.51642	174.54411	162.68221	-799.50128	184.20937	180.23605	-528.15961	303.98651	146.48792	-518.08929	-72.58987	143.16518	-875.99841	-78.45998	141.00356	-882.94446	295.87778	144.66602	
